HIERARCHY
ROOT Hips
{
	OFFSET 53.618301 -13.492716 97.844803
	CHANNELS 6 Xposition Yposition Zposition Xrotation Yrotation Zrotation
	JOINT spine
	{
		OFFSET 0.000000 -0.477352 8.301041
		CHANNELS 3 Xrotation Yrotation Zrotation
		JOINT spine1
		{
			OFFSET 0.000000 -0.000002 10.456497
			CHANNELS 3 Xrotation Yrotation Zrotation
			JOINT spine2
			{
				OFFSET 0.000000 -0.000002 10.019203
				CHANNELS 3 Xrotation Yrotation Zrotation
				JOINT Neck
				{
					OFFSET 0.000000 -1.226414 25.723503
					CHANNELS 3 Xrotation Yrotation Zrotation
					JOINT Head
					{
						OFFSET 0.000000 -0.000001 7.771744
						CHANNELS 3 Xrotation Yrotation Zrotation
						End Site
						{
							OFFSET 0.000000 6.203936 18.811996
						}
					}
				}
				JOINT RightShoulder
				{
					OFFSET -4.218800 0.587438 10.820000
					CHANNELS 3 Xrotation Yrotation Zrotation
					JOINT RightArm
					{
						OFFSET 0.000000 -0.000003 14.191406
						CHANNELS 3 Xrotation Yrotation Zrotation
						JOINT RightArmRoll
						{
							OFFSET 0.000000 -0.000001 7.164093
							CHANNELS 3 Xrotation Yrotation Zrotation
							JOINT RightForeArm
							{
								OFFSET 0.000000 -0.000004 20.866501
								CHANNELS 3 Xrotation Yrotation Zrotation
								JOINT RightForeArmRoll
								{
									OFFSET 0.000000 -0.000001 8.039215
									CHANNELS 3 Xrotation Yrotation Zrotation
									JOINT RightHand
									{
										OFFSET 0.000000 -0.000003 16.132996
										CHANNELS 3 Xrotation Yrotation Zrotation
										End Site
										{
											OFFSET 0.000000 0.000000 0.100006
										}
									}
								}
							}
						}
					}
				}
				JOINT LeftShoulder
				{
					OFFSET 4.218800 0.587438 10.820000
					CHANNELS 3 Xrotation Yrotation Zrotation
					JOINT LeftArm
					{
						OFFSET 0.000000 -0.000003 14.191406
						CHANNELS 3 Xrotation Yrotation Zrotation
						JOINT LeftArmRoll
						{
							OFFSET 0.000000 -0.000001 7.164093
							CHANNELS 3 Xrotation Yrotation Zrotation
							JOINT LeftForeArm
							{
								OFFSET 0.000000 -0.000004 20.866501
								CHANNELS 3 Xrotation Yrotation Zrotation
								JOINT LeftForeArmRoll
								{
									OFFSET 0.000000 -0.000001 8.039215
									CHANNELS 3 Xrotation Yrotation Zrotation
									JOINT LeftHand
									{
										OFFSET 0.000000 -0.000003 16.132996
										CHANNELS 3 Xrotation Yrotation Zrotation
										End Site
										{
											OFFSET 0.000000 0.000000 0.100006
										}
									}
								}
							}
						}
					}
				}
			}
		}
	}
	JOINT RightUpLeg
	{
		OFFSET -7.357731 1.131821 -1.349213
		CHANNELS 3 Xrotation Yrotation Zrotation
		JOINT RightUpLegRoll
		{
			OFFSET 0.000000 -0.000004 18.916801
			CHANNELS 3 Xrotation Yrotation Zrotation
			JOINT RightLeg
			{
				OFFSET 0.000000 0.000004 -23.425598
				CHANNELS 3 Xrotation Yrotation Zrotation
				JOINT RightLegRoll
				{
					OFFSET 0.000000 -0.000004 23.502296
					CHANNELS 3 Xrotation Yrotation Zrotation
					JOINT RightFoot
					{
						OFFSET 0.000000 -0.000003 19.561707
						CHANNELS 3 Xrotation Yrotation Zrotation
						JOINT RightToeBase
						{
							OFFSET 0.000000 -0.000003 16.352600
							CHANNELS 3 Xrotation Yrotation Zrotation
							End Site
							{
								OFFSET 0.006931 0.912836 7.919434
							}
						}
					}
				}
			}
		}
	}
	JOINT LeftUpLeg
	{
		OFFSET 7.357731 1.131821 -1.349213
		CHANNELS 3 Xrotation Yrotation Zrotation
		JOINT LeftUpLegRoll
		{
			OFFSET 0.000000 -0.000004 18.916901
			CHANNELS 3 Xrotation Yrotation Zrotation
			JOINT LeftLeg
			{
				OFFSET 0.000000 -0.000004 23.425507
				CHANNELS 3 Xrotation Yrotation Zrotation
				JOINT LeftLegRoll
				{
					OFFSET 0.000000 -0.000004 23.719498
					CHANNELS 3 Xrotation Yrotation Zrotation
					JOINT LeftFoot
					{
						OFFSET 0.000000 -0.000003 19.344406
						CHANNELS 3 Xrotation Yrotation Zrotation
						JOINT LeftToeBase
						{
							OFFSET 0.000000 -0.000003 16.352600
							CHANNELS 3 Xrotation Yrotation Zrotation
							End Site
							{
								OFFSET -0.031063 0.912836 7.919434
							}
						}
					}
				}
			}
		}
	}
}
MOTION
Frames: 9
Frame Time: 0.041667
42.862297 -10.122016 98.924004 -3.754108 -1.194013 5.516340 -0.489838 -0.198801 0.357240 3.024403 -0.396267 0.700380 4.669438 -0.387850 0.705073 18.872501 8.963031 -1.472262 9.024002 -8.585836 0.151597 2.274536 -59.829390 2.508887 -47.402083 -138.233781 -70.684043 0.000008 -0.000002 0.000003 66.082449 -16.938444 7.091697 -0.000001 0.000012 -3.008440 -5.000110 -7.998826 0.000065 -1.556069 68.280636 2.877692 -61.123199 107.708272 51.813535 0.000001 -0.000015 -0.000000 16.581222 13.915089 -1.474230 0.000001 -0.000005 3.000001 -5.000212 7.998744 -0.000189 -0.239100 -173.129053 2.336664 -179.999991 0.000005 -1.205004 171.091895 -2.855198 -0.860335 0.000003 -0.000000 0.113644 68.148014 6.936104 2.093723 25.456909 -7.349862 -0.000002 -0.587919 177.019160 1.848155 -0.000005 -0.000005 -1.126850 -9.206605 3.379185 0.978812 -0.000003 -0.000003 -0.121945 69.055507 -6.921731 -2.050206 25.456854 7.355620 0.000011 
42.850697 -10.148820 98.924408 -3.740650 -1.198722 5.535034 -0.489158 -0.198753 0.354882 3.025753 -0.395280 0.696694 4.670797 -0.386905 0.701378 18.885739 8.992383 -1.471270 9.033761 -8.602592 0.157683 2.262776 -59.817192 2.496860 -47.424848 -138.289447 -70.589226 0.000008 -0.000000 0.000004 66.081356 -16.889080 7.038897 -0.000001 0.000010 -3.008441 -5.000110 -7.998827 0.000065 -1.538608 68.294003 2.859612 -61.061659 107.689065 51.740169 0.000002 -0.000015 -0.000003 16.509817 13.925919 -1.470557 0.000002 -0.000005 3.000000 -5.000210 7.998744 -0.000189 -0.306310 -173.109095 2.355097 -179.999991 0.000005 -1.205004 170.999714 -2.868305 -0.867114 0.000002 -0.000000 0.113908 68.133616 6.936105 2.093630 25.456907 -7.349862 -0.000003 -0.628724 177.024174 1.853083 -0.000005 -0.000004 -1.126730 -9.242599 3.382188 0.980928 -0.000003 -0.000003 -0.122417 69.071155 -6.921470 -2.050277 25.456858 7.355621 0.000012 
42.856396 -10.140216 98.909203 -3.726515 -1.203801 5.554050 -0.488655 -0.198662 0.352496 3.026742 -0.394153 0.692990 4.671787 -0.385823 0.697661 18.899526 9.022210 -1.470888 9.043447 -8.620695 0.163443 2.250787 -59.804979 2.484550 -47.446975 -138.344703 -70.493740 0.000006 -0.000003 0.000001 66.079881 -16.839992 6.986190 -0.000001 0.000013 -3.008440 -5.000109 -7.998829 0.000064 -1.519578 68.307875 2.839822 -61.000187 107.669613 51.666303 0.000002 -0.000014 0.000001 16.437272 13.936713 -1.466766 0.000003 -0.000005 3.000001 -5.000211 7.998745 -0.000188 -0.373410 -173.088154 2.374001 -179.999991 0.000005 -1.205005 170.908668 -2.882392 -0.874036 0.000003 -0.000000 0.114113 68.118986 6.936125 2.093552 25.456909 -7.349862 -0.000002 -0.670544 177.030211 1.858613 -0.000005 -0.000004 -1.126601 -9.279133 3.385084 0.983082 -0.000003 -0.000003 -0.122882 69.086838 -6.921277 -2.050163 25.456856 7.355620 0.000011 
42.869495 -10.113120 98.899307 -3.711886 -1.209139 5.573302 -0.488279 -0.198540 0.350088 3.027482 -0.392929 0.689270 4.672527 -0.384645 0.693928 18.913844 9.052360 -1.470961 9.053069 -8.639744 0.168981 2.238656 -59.792890 2.472068 -47.469767 -138.398265 -70.399443 0.000007 -0.000003 0.000005 66.078242 -16.791074 6.933516 -0.000001 0.000014 -3.008440 -5.000110 -7.998825 0.000064 -1.499417 68.321959 2.818818 -60.939255 107.649942 51.592619 0.000001 -0.000016 -0.000001 16.363791 13.947460 -1.462844 0.000005 -0.000006 3.000000 -5.000209 7.998744 -0.000188 -0.440440 -173.067199 2.393203 -179.999991 0.000006 -1.205004 170.818400 -2.896472 -0.880964 0.000003 -0.000001 0.114277 68.104356 6.936100 2.093468 25.456906 -7.349862 -0.000002 -0.713079 177.036236 1.864582 -0.000005 -0.000004 -1.126469 -9.316025 3.387906 0.985260 -0.000003 -0.000003 -0.123344 69.102697 -6.921014 -2.050222 25.456853 7.355620 0.000012 
42.867695 -10.118616 98.910690 -3.696991 -1.214609 5.592675 -0.487974 -0.198401 0.347670 3.028081 -0.391651 0.685544 4.673125 -0.383411 0.690184 18.928382 9.082685 -1.471279 9.062666 -8.659339 0.174404 2.226437 -59.780889 2.459484 -47.491579 -138.452278 -70.303813 0.000008 -0.000002 0.000004 66.076514 -16.742310 6.880995 -0.000001 0.000013 -3.008440 -5.000110 -7.998826 0.000064 -1.478614 68.336357 2.797100 -60.877865 107.630114 51.518259 0.000001 -0.000015 -0.000003 16.289776 13.958127 -1.458821 0.000003 -0.000006 3.000001 -5.000211 7.998744 -0.000188 -0.507433 -173.045274 2.412564 -179.999991 0.000005 -1.205004 170.728583 -2.910540 -0.887916 0.000003 -0.000000 0.114418 68.089637 6.936097 2.093493 25.456904 -7.349862 -0.000001 -0.756020 177.043243 1.870779 -0.000005 -0.000004 -1.126350 -9.353140 3.390683 0.987457 -0.000003 -0.000003 -0.123804 69.118482 -6.920814 -2.050199 25.456853 7.355621 0.000012 
42.847893 -10.141516 98.901901 -3.682029 -1.220118 5.612089 -0.487687 -0.198258 0.345249 3.028651 -0.390358 0.681814 4.673695 -0.382163 0.686439 18.943034 9.113065 -1.471692 9.072252 -8.679060 0.179798 2.214184 -59.768786 2.446859 -47.514061 -138.505622 -70.209038 0.000009 -0.000004 0.000003 66.074745 -16.693573 6.828361 -0.000001 0.000011 -3.008440 -5.000110 -7.998829 0.000064 -1.457620 68.350646 2.775185 -60.816749 107.610354 51.444114 0.000001 -0.000016 -0.000003 16.215767 13.968869 -1.454805 0.000004 -0.000005 3.000001 -5.000210 7.998744 -0.000188 -0.574417 -173.024346 2.431945 -179.999991 0.000005 -1.205004 170.638917 -2.924594 -0.894906 0.000002 -0.000000 0.114554 68.074911 6.936090 2.093417 25.456901 -7.349862 -0.000002 -0.799063 177.049281 1.877047 -0.000005 -0.000004 -1.126220 -9.390303 3.393449 0.989660 -0.000002 -0.000003 -0.124261 69.134266 -6.920604 -2.050273 25.456853 7.355620 0.000011 
42.854397 -10.133318 98.904099 -3.667191 -1.225537 5.631440 -0.487363 -0.198123 0.342834 3.029280 -0.389094 0.678090 4.674324 -0.380943 0.682699 18.957485 9.143353 -1.471976 9.081858 -8.698502 0.185255 2.201999 -59.756690 2.434314 -47.536539 -138.558952 -70.114221 0.000009 -0.000003 0.000001 66.073283 -16.644790 6.775986 -0.000001 0.000013 -3.008440 -5.000109 -7.998832 0.000064 -1.436918 68.364928 2.753585 -60.755236 107.590663 51.369696 0.000001 -0.000016 -0.000001 16.141853 13.979590 -1.450742 0.000004 -0.000006 3.000002 -5.000209 7.998744 -0.000189 -0.641424 -173.002422 2.451152 -179.999991 0.000005 -1.205004 170.548963 -2.938631 -0.901954 0.000002 -0.000000 0.114701 68.060287 6.936087 2.093236 25.456902 -7.349862 -0.000001 -0.841899 177.056330 1.883159 -0.000005 -0.000005 -1.126100 -9.427358 3.396244 0.991862 -0.000002 -0.000003 -0.124721 69.150044 -6.920391 -2.050247 25.456860 7.355621 0.000011 
42.847897 -10.133221 98.897209 -3.652701 -1.230756 5.650636 -0.486955 -0.198010 0.340434 3.030101 -0.387899 0.674374 4.675144 -0.379793 0.678972 18.971632 9.173407 -1.471980 9.091509 -8.717283 0.190890 2.189943 -59.744587 2.421922 -47.558679 -138.613116 -70.018571 0.000009 -0.000003 0.000003 66.072019 -16.595857 6.723273 -0.000001 0.000011 -3.008441 -5.000110 -7.998826 0.000066 -1.416977 68.378998 2.732811 -60.693464 107.571122 51.295288 0.000003 -0.000015 -0.000001 16.068662 13.990340 -1.446746 0.000002 -0.000005 3.000000 -5.000209 7.998746 -0.000189 -0.708493 -172.981521 2.470084 -179.999991 0.000005 -1.205004 170.458463 -2.952650 -0.909076 0.000002 -0.000000 0.114877 68.045568 6.936107 2.093164 25.456911 -7.349862 -0.000002 -0.884230 177.062341 1.888970 -0.000005 -0.000004 -1.125970 -9.464152 3.399078 0.994050 -0.000003 -0.000003 -0.125183 69.165822 -6.920168 -2.050219 25.456858 7.355621 0.000010 
42.846191 -10.133221 98.894608 -3.638776 -1.235665 5.669575 -0.486398 -0.197932 0.338055 3.031199 -0.386814 0.670675 4.676243 -0.378753 0.675259 18.985351 9.203088 -1.471512 9.101227 -8.734972 0.196787 2.178085 -59.732374 2.409768 -47.581386 -138.667552 -69.923269 0.000006 -0.000002 0.000005 66.071118 -16.546780 6.670542 -0.000001 0.000013 -3.008440 -5.000110 -7.998830 0.000063 -1.398259 68.392658 2.713369 -60.630824 107.551970 51.220425 0.000001 -0.000016 -0.000002 15.996402 14.001199 -1.442813 0.000005 -0.000006 3.000001 -5.000211 7.998745 -0.000188 -0.775645 -172.960648 2.488546 -179.999991 0.000005 -1.205004 170.367075 -2.966644 -0.916290 0.000003 -0.000000 0.115099 68.031061 6.936102 2.093075 25.456904 -7.349862 -0.000002 -0.925739 177.068379 1.894271 -0.000004 -0.000005 -1.125850 -9.500527 3.402002 0.996220 -0.000002 -0.000003 -0.125651 69.181606 -6.919940 -2.050190 25.456854 7.355621 0.000012 
